<svg xmlns="http://www.w3.org/2000/svg" viewBox="0 0 128 128">
  <defs>
    <linearGradient id="g" x1="0%" y1="0%" x2="100%" y2="100%">
      <stop offset="0%" stop-color="#22c55e"/>
      <stop offset="100%" stop-color="#15803d"/>
    </linearGradient>
  </defs>
  <rect width="128" height="128" rx="28" fill="#f0fdf4"/>
  <path d="M86 26c-30 2-48 26-48 50 0 18 14 26 26 26 19 0 34-16 34-38 0-8-2-18-6-24 0 0 6-8 6-16 0-3-3-4-6-4-3 1-6 4-6 6z" fill="url(#g)"/>
  <path d="M56 96c10-14 26-32 36-40-16 5-30 14-40 24" stroke="#0f172a" stroke-width="4" stroke-linecap="round" fill="none"/>
</svg>
